<svg width="1024" height="1024" xmlns="http://www.w3.org/2000/svg" class="icon"><g stroke="null"><path d="M441.812 92.232h139.992c93.137-2.052 194.07 26.505 257.747 92.234 65.81 63.677 94.285 164.61 92.316 257.746v139.992c1.97 93.137-26.505 194.069-92.316 257.747-63.678 65.81-164.61 94.285-257.747 92.316H441.812c-93.137 1.969-194.069-26.505-257.746-92.316-65.811-63.596-94.286-164.528-92.316-257.665V442.294c-1.97-93.219 26.505-194.15 92.316-257.828 63.677-65.73 164.61-94.286 257.746-92.234z" fill="#775CFF"/><path d="M184.066 184.466c-62.119 60.149-91.003 153.45-92.316 242.073 113.24 0 205.064-91.906 205.064-205.147 0-35.121-8.862-68.19-24.371-97.075-33.316 14.688-63.678 34.628-88.377 60.149z" fill="#FFF" opacity=".5"/><path d="M586.892 604.114c1.23 3.61 2.051 7.467 2.051 11.488v49.317c0 20.433-16.575 37.009-37.008 37.009h-74.017c-20.433 0-37.009-16.576-37.009-37.009v-49.317c0-3.118.493-6.154 1.231-9.108-64.17-27.08-109.22-90.675-109.22-164.692 0-98.799 80.09-178.888 178.888-178.888s178.888 80.09 178.888 178.888c0 71.965-42.506 133.92-103.804 162.312zm-89.034-78.202c3.118 3.118 6.975 4.677 11.57 4.677 4.432 0 8.288-1.477 11.57-4.43 3.283-3.283 4.924-7.14 4.924-11.571 0-4.76-1.559-8.534-4.677-11.324-2.954-2.954-6.893-4.431-11.734-4.431-4.76 0-8.617 1.477-11.57 4.43-3.119 2.79-4.678 6.565-4.678 11.325-.082 4.431 1.477 8.206 4.595 11.324zm50.138-145.244c-8.698-7.878-20.268-11.734-34.629-11.734-16.411 0-29.295 4.759-38.65 14.196-9.354 9.354-13.95 22.074-13.95 38.157h23.305c0-9.765 1.97-17.314 5.99-22.648 4.432-6.4 11.653-9.519 21.746-9.519 8.124 0 14.442 2.216 18.874 6.647 4.267 4.595 6.4 10.667 6.4 18.217 0 5.498-2.051 10.914-6.236 16.247l-3.775 4.185c-13.95 12.473-22.32 21.582-25.11 27.572-2.954 5.498-4.431 12.473-4.431 21.09v3.774h23.797v-3.775c0-5.498 1.149-10.34 3.528-14.688 2.052-4.267 5.17-8.124 9.355-11.57 10.504-9.191 16.74-14.935 18.628-17.315 5.662-7.221 8.452-16.248 8.452-27.08.082-13.457-4.432-24.042-13.294-31.756zm-87.31 343.908h98.716c10.258 0 18.545 8.288 18.545 18.545 0 10.258-8.287 18.546-18.545 18.546h-98.716c-10.258 0-18.546-8.288-18.546-18.546.082-10.257 8.37-18.545 18.546-18.545z" fill="#FFF"/><path d="M689.465 462.727c-78.284 29.787-134.002 105.527-134.002 194.315 0 15.099 1.642 29.87 4.678 44.065 16.411-3.774 28.72-18.463 28.72-36.106v-49.317c0-4.02-.82-7.878-2.051-11.488 55.307-25.684 95.352-78.53 102.655-141.47zM567.362 726.38a213.02 213.02 0 009.6 22.649c.657-1.888.985-3.857.985-5.99 0-7.304-4.349-13.705-10.585-16.659z" fill="#775CFF" opacity=".5"/></g></svg>