<svg class="icon" viewBox="0 0 1024 1024" xmlns="http://www.w3.org/2000/svg" width="81" height="81"><path d="M165.93 462.562h296.632V165.93H165.93v296.63zm98.878-197.754h98.877v98.877h-98.877v-98.877zm296.63-98.877v296.63H858.07v-296.63H561.44zm197.754 197.754h-98.877v-98.877h98.877v98.877zM165.931 858.069h296.63V561.44h-296.63v296.63zm98.877-197.754h98.877v98.877h-98.877v-98.877zm543.823-98.877h49.438v197.754H709.754v-49.438h-49.439v148.315h-98.877V561.44h148.316v49.438h98.877v-49.439zm0 247.193h49.438v49.438h-49.438v-49.438zm-98.877 0h49.438v49.438h-49.438v-49.438z" fill="#8a8a8a"/></svg>