<svg class="icon" viewBox="0 0 1024 1024" xmlns="http://www.w3.org/2000/svg" width="81" height="81"><path d="M62 512a450 450 0 10900 0 450 450 0 10-900 0z" fill="#FDAB13"/><path d="M512.03 694.907S344.874 796.19 334.49 788.009c-10.384-8.192 34.263-196.434 34.263-196.434S219.249 467.773 225.464 452.424c6.236-15.34 198.308-28.642 198.308-28.642s71.64-178.022 88.259-178.022c17.643 0 88.248 178.022 88.248 178.022s193.126 13.302 198.308 28.642c5.192 15.36-143.278 139.151-143.278 139.151s2.079 12.278 4.147 20.46c0 1.024-69.56 2.048-126.669 0-30.105-1.024-66.447-7.168-66.447-7.168l165.09-116.634s-59.188-10.24-120.444-13.302c-66.447-2.048-133.939 4.096-143.278 6.144-6.226 1.024 42.568 1.024 98.632 6.144 39.455 3.072 90.327 13.292 90.327 13.292l-165.08 121.753s33.23 6.144 150.55 3.072 156.774-11.264 156.774-11.264-8.305 4.096-16.61 6.144c-9.349 2.048-18.688 5.12-18.688 5.12 12.452 54.221 34.263 152.443 25.949 160.625-12.452 13.302-177.542-91.054-177.542-91.054z" fill="#FFF"/></svg>