<svg class="icon" viewBox="0 0 1138 1024" xmlns="http://www.w3.org/2000/svg" width="81" height="81"><path d="M747.323 912.51a18.35 18.35 0 0019.369-19.369V599.556a147.132 147.132 0 00-137.958-150.87H483.3a146.793 146.793 0 00-137.618 150.87V893.14a18.35 18.35 0 0019.369 19.369z" fill="#4E8CEE"/><path d="M262.432 912.51a18.01 18.01 0 0019.028-19.369V587.323a15.29 15.29 0 00-3.737-15.63 15.63 15.63 0 00-13.592-5.777h-59.125A115.871 115.871 0 0090.154 680.428v212.034a18.35 18.35 0 0019.029 19.368h153.249zm740.42 0a18.35 18.35 0 0019.368-19.369V680.428a115.531 115.531 0 00-114.852-116.211h-59.125c-4.077 0-11.553 1.699-13.592 5.776a39.077 39.077 0 00-3.737 15.631v305.818a18.01 18.01 0 0019.028 19.369zM890.037 535.674a135.92 135.92 0 10-133.88-135.92 134.22 134.22 0 00133.88 135.92zm-663.965 0a133.88 133.88 0 00133.88-135.92 133.88 133.88 0 10-267.76 0 133.88 133.88 0 00133.88 135.92z" fill="#A6C5F6"/><path d="M556.017 417.424a172.617 172.617 0 00172.278-174.316 172.278 172.278 0 10-344.555 0 172.957 172.957 0 00172.277 174.316z" fill="#4E8CEE"/></svg>