<svg class="icon" viewBox="0 0 1024 1024" xmlns="http://www.w3.org/2000/svg" width="81" height="81"><path d="M103.25 288.875c-23.025 0-41.25 18-41.25 40.5a40.5 40.5 0 0041.25 40.5c23.25 0 41.625-18 41.625-40.5s-18.375-40.5-41.625-40.5m285.375.75c-126 0-204.75 85.875-204.75 222.375 0 137.625 78.75 223.125 204.75 223.125C513.875 735.125 593 649.625 593 512c0-136.5-79.125-222.375-204.375-222.375m406.5 0c-93.75 0-160.5 51.75-160.5 128.625 0 61.125 37.875 99.375 117.375 117.75l55.875 13.5c54.375 12.375 76.5 30.375 76.5 61.5 0 36-36.375 61.5-88.125 61.5-52.875 0-92.625-25.875-96.75-65.625h-75c3 79.5 68.25 128.25 167.25 128.25C896.375 735.125 962 683.75 962 602c0-64.125-37.5-100.5-124.5-120.375l-49.875-11.25C734.75 457.625 713 440.75 713 412.25c0-36 33-60 81.75-60 49.125 0 82.875 24.375 86.625 64.5h73.5C953 341 890.375 289.625 795.125 289.625m-406.5 65.625c76.5 0 125.625 61.125 125.625 156.75 0 96.375-49.125 157.5-125.625 157.5-77.25 0-126-61.125-126-157.5 0-95.625 48.75-156.75 126-156.75M66.163 411.125V728h74.587V411.125H66.125z"/></svg>