<svg class="icon" viewBox="0 0 1395 1024" xmlns="http://www.w3.org/2000/svg" width="81" height="81"><path d="M215.472 90.97h984.178a71.697 71.697 0 0182.037 80.371v681.292a71.697 71.697 0 01-82.037 80.37H215.472a71.697 71.697 0 01-82.036-80.37V171.38a71.697 71.697 0 0182.036-80.37z" fill="#e16531"/><path d="M168.318 119.49l550.36 317.695a20.528 20.528 0 11-20.529 35.488L147.64 155.131a20.528 20.528 0 1120.528-35.489zm539.49 354.13l552.972-319.057a20.642 20.642 0 10-20.718-35.679L687.506 437.942a20.604 20.604 0 0020.529 35.678z" fill="#FFF"/><path d="M605.015 452.372a102.527 102.527 0 10102.527-102.527 102.527 102.527 0 00-102.527 102.527zM238.722 645.531h653.206a23.356 23.356 0 110 46.627H238.722a23.356 23.356 0 010-46.627zm0 139.967h419.986a23.356 23.356 0 110 46.626H238.765a23.356 23.356 0 110-46.626z" fill="#FFF"/></svg>