<svg class="icon" viewBox="0 0 1107 1024" xmlns="http://www.w3.org/2000/svg" width="81" height="81"><path d="M665.804 830.028l-204.736 41.668 20.496-74.327 32.884-117.796 287.847-288.297V166.043a45.046 45.046 0 00-41.443-49.55h-83.336v67.569a17.793 17.793 0 11-35.587 0v-67.57H523.007v67.57a17.793 17.793 0 01-17.794 17.793 17.793 17.793 0 01-17.793-17.793v-67.57H368.272v67.57a17.793 17.793 0 11-35.587 0v-67.57H249.35a51.128 51.128 0 00-47.524 47.524V859.76a51.128 51.128 0 0047.524 47.524h505.646a51.128 51.128 0 0047.524-47.524V693.087zM306.784 294.65h362.624a15.766 15.766 0 0117.793 17.793 15.766 15.766 0 01-17.793 17.794H306.784a15.766 15.766 0 01-17.794-17.794 15.766 15.766 0 0117.794-17.793zm0 130.86h362.624a15.766 15.766 0 0117.793 17.793 15.766 15.766 0 01-17.793 17.794H306.784a15.766 15.766 0 01-17.794-17.794 15.766 15.766 0 0117.794-17.793zM288.99 586.1a15.766 15.766 0 0117.794-17.793h208.114a15.766 15.766 0 0117.794 17.793 18.92 18.92 0 01-17.794 17.794H306.784a15.766 15.766 0 01-18.019-18.019z" fill="#F9D65D"/><path d="M666.03 830.028L461.067 871.47l53.38-193.024 151.581 151.58z" fill="#E0B873"/><path d="M541.701 855.254l-80.633 16.442 20.946-75.903a123.652 123.652 0 0023.65 36.938 127.932 127.932 0 0036.037 22.523z" fill="#4D4D4D"/><path d="M514.38 678.74l391.071-391.23 151.491 151.446-391.07 391.229z" fill="#F73434"/></svg>