<svg class="icon" viewBox="0 0 1024 1024" xmlns="http://www.w3.org/2000/svg" width="81" height="81"><path d="M716.8 160.64a160.288 160.288 0 00-30.4 2.56 218.88 218.88 0 00-147.52 86.4 26.048 26.048 0 01-42.24 0A221.952 221.952 0 00318.4 160a62.112 62.112 0 00-10.88.64A221.28 221.28 0 0096.64 371.52a58.528 58.528 0 00-.64 10.56 220.992 220.992 0 0062.08 154.24l5.76 5.44 338.88 339.2a21.248 21.248 0 0030.08 0L634.88 779.2a168.48 168.48 0 01235.84-235.84l7.68-7.68a223.392 223.392 0 0058.24-122.24 191.584 191.584 0 002.24-30.4 222.272 222.272 0 00-222.08-222.4zM459.808 588.256H354.72a32.32 32.32 0 110-64.672h105.088a32.32 32.32 0 010 64.672zm38.4-121.152H277.92a32.32 32.32 0 110-64.672h220.288a32.32 32.32 0 010 64.672z" fill="#E3713D"/><path d="M870.72 543.36L634.88 779.2a168.48 168.48 0 01235.84-235.84z" fill="#E29C56"/><path d="M938.88 833.92a826.976 826.976 0 01-106.24.96 168.192 168.192 0 01-197.76-55.68l235.84-235.84a167.808 167.808 0 0116.96 255.68 73.984 73.984 0 0051.2 34.88z" fill="#F5DAA5"/></svg>