<svg class="icon" viewBox="0 0 1024 1024" xmlns="http://www.w3.org/2000/svg" width="81" height="81"><path d="M62 512a450 450 0 10900 0 450 450 0 10-900 0z" fill="#4CAFE9"/><path d="M744.13 601.135c-10.752-64.678-55.9-107.055-55.9-107.055 6.454-58.722-17.207-69.142-17.207-69.142C666.062 243.266 515.17 246.452 512 246.536c-3.169-.083-154.079-3.269-159.023 178.42 0 0-23.661 10.42-17.207 69.142 0 0-45.148 42.377-55.9 107.055 0 0-5.741 109.28 51.603 13.39 0 0 12.909 36.421 36.553 69.142 0 0-42.294 14.867-38.694 53.528 0 0-1.443 43.107 90.314 40.154 0 0 64.495-5.194 83.859-33.45h17.057c19.347 28.256 83.859 33.45 83.859 33.45 91.724 2.97 90.297-40.154 90.297-40.154 3.568-38.645-38.694-53.528-38.694-53.528 23.645-32.72 36.554-69.142 36.554-69.142 57.277 95.89 51.552-13.407 51.552-13.407z" fill="#FFF"/></svg>