<svg class="icon" viewBox="0 0 1024 1024" xmlns="http://www.w3.org/2000/svg" width="81" height="81"><path d="M267.5 451.25zm489 0zm-3.09 216.96.09-.96 168 34.5-165-225c-28.5 72-88.5 129-162 154.5l143.82 197.745 14.895-160.83.195.045zM263 484.25l-160.5 217.5 168-34.5.225 2.43.195-.045 14.76 159.375L428 634.25c-73.5-24-135-79.5-165-150z" fill="#fff"/><path d="M744.5 380.75c0-130.5-106.5-235.5-237-235.5s-237 103.5-237 234 106.5 235.5 237 235.5c132 0 237-103.5 237-234z" fill="#f4ea2a"/><path d="M768.5 442.25c3-19.5 6-40.5 6-63 0-147-120-265.5-267-265.5S242 233.75 242 379.25c0 24 3 46.5 9 69l-219 297 211.5-42 19.5 207 198-270c16.5 3 31.5 4.5 48 4.5 19.5 0 37.5-1.5 55.5-6l198 271.5 19.5-207 210 42-223.5-303zm-498-63c0-130.5 106.5-234 237-234s237 105 237 235.5-105 234-237 234c-130.5 0-237-105-237-235.5zm15.18 449.76-.18.24-14.775-159.57-.225-2.43-168 34.5L263 484.25c30 70.5 91.5 126 165 150L285.68 829.01zM753.5 667.25l-.09.96-14.91 161.04-.18-.255L594.5 631.25c73.5-25.5 133.5-82.5 162-154.5l165 225-168-34.5z" fill="#2c2c2c"/><path d="M507.5 241.25c-78 0-141 63-141 139.5s63 139.5 141 139.5 141-63 141-139.5-63-139.5-141-139.5z" fill="#f4ea2a"/><path d="M507.5 209.75c-94.5 0-171 76.5-171 169.5s76.5 169.5 171 169.5 171-76.5 171-169.5-76.5-169.5-171-169.5zm0 310.5c-78 0-141-63-141-139.5s63-139.5 141-139.5 141 63 141 139.5-63 139.5-141 139.5z" fill="#2c2c2c"/><path d="M468.815 323.03h-.51l-28.32 15.285-4.26-16.8 35.595-19.05h18.795v162.9h-21.3V323.03zm52.245 42.3c2.745 1.785 7.575 3.675 12.18 3.675 6.72 0 9.885-3.36 9.885-7.56 0-4.41-2.64-6.825-9.465-9.345-9.135-3.255-13.44-8.295-13.44-14.385 0-8.19 6.615-14.925 17.55-14.925 5.145 0 9.675 1.47 12.495 3.15l-2.31 6.72c-1.995-1.26-5.67-2.94-10.395-2.94-5.445 0-8.49 3.15-8.49 6.93 0 4.2 3.045 6.09 9.66 8.61 8.835 3.36 13.35 7.785 13.35 15.345 0 8.925-6.93 15.225-19.02 15.225-5.565 0-10.71-1.365-14.28-3.465l2.28-7.035zm53.985-55.995v14.61h13.23v7.035h-13.23v27.42c0 6.3 1.785 9.885 6.93 9.885 2.415 0 4.2-.315 5.355-.63l.42 6.93c-1.785.735-4.635 1.26-8.205 1.26-4.305 0-7.785-1.365-9.975-3.885-2.625-2.73-3.57-7.245-3.57-13.245V330.98h-7.875v-7.035H566v-12.18l9.045-2.43z"/></svg>