<svg class="icon" viewBox="0 0 1024 1024" xmlns="http://www.w3.org/2000/svg" width="81" height="81"><path d="M243.559 141.211h537.004q102.287 0 102.287 102.287v537.004q0 102.287-102.287 102.287H243.56q-102.286 0-102.286-102.287V243.498q0-102.287 102.286-102.287z" fill="#3DC656"/><path d="M558.41 630.345a46.413 46.413 0 11-46.4-47.422 46.911 46.911 0 0146.4 47.422zm99.077-92.21a12.031 12.031 0 00-.41-17.172 214.073 214.073 0 00-290.122 0 12.019 12.019 0 00-.422 17.171l24.651 25.188a11.392 11.392 0 0015.79.588 156.997 156.997 0 01210.059 0 11.392 11.392 0 0015.79-.588zm81.267-84.26a12.044 12.044 0 00-.256-17.03 327.24 327.24 0 00-452.976 0 12.031 12.031 0 00-.256 17.03l24.626 25.176a11.507 11.507 0 0016.11.281 269.998 269.998 0 01372.067 0 11.507 11.507 0 0016.11-.281zm0 0" fill="#FFF"/></svg>